<svg width="{size}" height="{size}" viewBox="0 0 685 698" fill="none" xmlns="http://www.w3.org/2000/svg">
			<path d="M445.578 0C446.784 0.896936 447.345 2.10199 448.287 2.6424C456.391 7.29212 458.997 14.7592 456.863 24.1864C455.07 32.1129 447.574 37.2926 439.76 37.1396C428.688 36.9228 417.557 37.1795 406.522 38.0939C375.672 40.6504 345.255 45.5144 315.899 55.9326C289.601 65.2655 265.102 77.9831 243.397 95.4404C230.323 105.956 217.944 117.494 206.29 129.573C194.028 142.284 183.968 156.862 175.248 172.316C166.219 188.317 158.578 204.924 153.901 222.694C151.035 233.585 148.71 244.694 147.213 255.849C145.773 266.577 144.919 277.512 145.209 288.318C145.851 312.253 150.642 335.471 159.397 357.845C165.246 372.791 172.975 386.58 182.733 399.35C195.104 415.542 210.24 428.475 227.511 439.077C241.988 447.965 257.337 454.772 273.972 458.457C300.041 464.233 324.075 460.446 345.778 443.922C357.013 435.367 363.256 423.835 368.019 411.103C368.497 409.826 368.954 408.541 369.835 407.407C369.029 415.666 366.257 423.33 362.078 430.376C349.835 451.014 330.624 461.671 307.84 465.802C287.374 469.513 267.211 465.982 247.881 458.864C228.568 451.751 210.857 441.629 194.903 428.437C176.524 413.24 162.046 394.956 151.11 373.902C142.797 357.899 136.6 340.959 133.218 323.261C130.691 310.03 129.223 296.541 128.205 283.096C127.415 272.654 127.05 261.986 128.289 251.632C129.993 237.396 132.83 223.228 136.201 209.277C140.357 192.077 147.277 175.776 155.53 160.144C163.903 144.282 173.374 129.06 185.15 115.434C193.097 106.239 200.761 96.709 209.483 88.2934C226.819 71.5659 245.954 57.1206 266.839 44.9139C286.781 33.2587 307.783 24.111 329.879 17.8464C347.039 12.9813 364.612 9.41363 382.167 6.16163C394.001 3.96948 406.125 3.35082 418.111 1.95684C418.992 1.85425 419.807 1.17201 420.35 0.379623C428.401 1.40071e-05 436.755 1.4e-05 445.578 0Z" fill="#ffffff"></path>
			<path d="M684.047 211.546C683.391 212.311 682.255 212.506 682.149 212.949C678.74 227.139 659.006 229.899 648.922 217.625C637.452 203.665 625.196 190.302 612.669 177.267C589.155 152.801 561.987 133.153 531.239 118.755C510.242 108.923 488.44 101.217 465.322 98.0341C453.544 96.4126 441.721 94.8419 429.865 94.1408C418.739 93.4829 407.403 92.8877 396.411 94.2687C380.924 96.2144 365.466 99.2359 350.361 103.191C327.532 109.169 306.44 119.383 287.122 133.021C272.746 143.169 259.795 154.844 248.17 168.166C235.287 182.928 224.694 199.019 216.724 216.836C210.19 231.444 205.231 246.598 204.128 262.672C203.37 273.72 202.452 284.889 203.262 295.882C204.507 312.786 208.283 329.283 214.996 345.03C220.733 358.489 228.35 370.693 239.176 380.491C254.525 394.383 272.566 402.664 293.575 400.695C302.617 399.847 311.346 395.667 320.794 393.141C321.512 393.393 321.653 393.504 321.794 393.614C314.273 398.916 305.61 401.376 296.771 402.926C273.605 406.987 253.509 399.26 235.844 385.049C222.439 374.265 213.078 360.002 206.181 344.305C200.074 330.405 196.353 315.708 194.202 300.735C192.805 291.006 191.851 281.056 192.22 271.262C193.115 247.506 197.956 224.538 208.012 202.77C216.819 183.707 228.238 166.463 241.902 150.549C260.838 128.493 283.171 110.919 308.947 97.5068C331.937 85.5442 356.165 77.6863 381.612 72.8478C404.518 68.4923 427.606 68.0235 450.6 69.2807C475.632 70.6494 500.192 75.8405 524.058 83.9435C555.874 94.746 584.747 110.804 611.643 130.892C632.659 146.587 650.938 165.116 669.109 183.788C674.56 189.389 678.683 196.284 683.731 202.293C684.047 205.031 684.047 208.061 684.047 211.546Z" fill="#ffffff"></path>
			<path d="M684.047 462.531C683.381 463.654 682.227 464.238 682.122 464.972C680.352 477.36 678.81 489.781 677.019 502.167C675.082 515.565 663.954 522.644 651.452 517.877C641.981 514.267 638.591 506.331 640.317 496.438C642.788 482.274 645.941 468.21 647.903 453.98C649.602 441.659 650.401 429.181 650.943 416.744C651.435 405.428 651.845 394.003 650.865 382.75C649.294 364.71 646.243 346.87 641.15 329.369C635.414 309.66 627.648 290.786 617.375 273.175C609.35 259.416 599.708 246.54 590.105 233.782C584.288 226.054 577.632 218.814 570.565 212.196C547.447 190.549 521.44 173.433 491.298 162.931C475.846 157.548 460.198 153.306 443.841 152C435.34 151.321 426.821 149.937 418.338 150.127C382.163 150.937 348.306 159.773 318.55 181.198C296.091 197.369 278.156 217.659 266.215 242.717C259.369 257.082 255.394 272.558 257.205 288.552C260.049 313.668 271.313 333.743 294.887 345.378C298.467 347.146 302.05 348.911 305.319 351.584C300.372 349.654 295.115 348.273 290.537 345.688C278.897 339.116 268.302 330.96 262.424 318.621C258.469 310.318 254.992 301.466 253.271 292.483C249.113 270.785 254.154 250.197 263.872 230.752C270.402 217.686 278.853 205.889 288.528 194.843C300.698 180.95 314.664 169.399 330.51 160.107C346.685 150.622 363.936 143.967 382.332 139.857C401.263 135.626 420.331 134.523 439.568 135.045C456.847 135.514 473.777 138.434 490.463 142.962C507.76 147.655 524.139 154.51 539.903 162.968C555.349 171.254 569.96 180.765 582.984 192.525C590.851 199.628 598.523 206.969 605.977 214.505C620.104 228.787 631.694 245.027 642.081 262.178C655.129 283.722 665.503 306.481 672.209 330.74C675.851 343.915 678.151 357.461 681.045 370.843C681.82 374.425 682.555 378.017 683.678 381.302C684.047 408.021 684.047 435.042 684.047 462.531Z" fill="#ffffff"></path>
			<path d="M413.257 553.289C402.216 559.636 391.697 566.266 380.581 571.666C363.489 579.969 345.424 585.513 326.688 589.109C307.302 592.829 287.75 594.036 268.214 592.753C254.039 591.822 239.921 589.078 225.943 586.311C201.99 581.57 179.286 572.874 158.168 560.801C143.095 552.183 128.563 542.391 114.758 531.854C103.021 522.897 92.1207 512.657 81.8307 502.035C66.2145 485.915 53.3274 467.636 41.9893 448.205C27.0255 422.563 15.6375 395.408 6.79457 367.171C3.87648 357.853 1.89259 348.194 0.15492 338.569C-1.43383 329.769 9.45448 319.797 21.0093 321.735C31.0747 323.423 35.1571 329.804 36.9141 338.223C41.3229 359.347 47.7284 379.844 55.539 399.892C64.2003 422.124 74.9606 443.333 89.0812 462.651C95.1216 470.915 101.509 478.978 108.326 486.608C115.001 494.077 121.893 501.531 129.637 507.828C142.573 518.348 155.768 528.708 169.764 537.724C186.366 548.418 204.523 556.29 223.488 562.101C239.594 567.036 255.821 571.372 272.781 571.984C284.527 572.407 296.358 573.687 308.012 572.785C331.419 570.974 354.06 565.536 375.789 556.161C390.964 549.613 405.171 541.537 418.397 531.823C431.81 521.971 443.354 510.052 452.936 496.406C465.623 478.341 474.613 458.48 479.489 436.975C485.257 411.536 485.947 386.163 473.969 362.066C463.842 341.691 447.825 327.916 425.226 323.25C417.248 321.603 408.84 322.044 399.277 321.447C423.835 318.041 444.781 322.492 462.444 338.883C478.094 353.406 486.41 371.519 489.061 392.486C491.642 412.887 490.038 432.963 484.698 452.796C478.473 475.914 468.217 497.172 453.41 515.857C442.604 529.494 430.203 541.838 415.324 551.311C414.636 551.75 414.112 552.446 413.257 553.289Z" fill="#ffffff"></path>
			<path d="M537.342 436.339C538.078 422.083 539.957 408.079 538.761 394.344C536.122 364.043 524.909 336.742 506.824 312.102C494.346 295.101 479.574 280.944 460.768 271.407C447.003 264.426 432.106 261.403 416.739 263.135C401.015 264.907 387.216 271.36 376.366 283.247C374.599 285.184 373.292 287.539 371.772 289.701C371.022 289.023 370.273 288.345 369.524 287.667C372.344 284.295 374.825 280.549 378.046 277.616C390.779 266.024 405.575 259.811 423.087 258.816C448.616 257.365 470.002 266.429 489.436 281.867C509.907 298.129 525.077 318.57 536.416 341.916C543.978 357.485 549.381 373.854 550.949 391.168C552.123 404.121 553.471 417.216 552.785 430.144C551.817 448.385 548.208 466.336 542.704 483.883C536.216 504.572 527.01 523.911 515.013 541.902C504.432 557.77 492.289 572.411 478.192 585.285C456.418 605.171 432.038 621.212 405.168 633.385C382.975 643.44 359.723 650.258 335.869 654.915C311.933 659.589 287.603 660.165 263.409 658.78C235.41 657.178 207.967 651.419 181.324 642.569C164.765 637.068 148.342 631.056 132.199 624.441C123.125 620.723 118.28 610.124 122.753 599.816C127.058 589.894 138.6 585.911 148.999 591.027C169.485 601.106 190.462 610.007 212.507 615.954C227.254 619.932 242.296 622.848 257.264 625.963C274.839 629.619 292.739 629.804 310.492 628.762C324.379 627.948 338.233 625.487 351.937 622.89C373.964 618.715 394.916 610.994 414.882 600.912C431.18 592.682 446.336 582.617 460.653 571.129C477.963 557.238 492.458 540.843 504.609 522.58C520.6 498.549 531.485 472.175 536.054 443.45C536.411 441.207 536.745 438.96 537.342 436.339Z" fill="#ffffff"></path>
			<path d="M145.277 444.647C158.561 458.399 171.805 471.682 187.612 482.021C205.445 493.687 224.369 503.068 244.914 509.008C261.454 513.789 278.286 516.492 295.532 515.974C314.792 515.395 333.324 511.161 351.291 504.313C366.434 498.541 380.61 490.849 392.942 480.413C409.753 466.187 421.607 448.625 425.026 426.302C427.817 408.082 422.868 391.779 412.451 376.891C411.667 375.77 410.945 374.604 411.019 372.639C412.312 373.922 413.789 375.066 414.869 376.508C426.182 391.604 430.98 408.652 428.964 427.336C427.087 444.734 420.185 460.065 409 473.676C395.151 490.529 377.747 502.406 358.178 511.329C342.173 518.627 325.58 524.248 307.932 525.963C298.789 526.852 289.59 528.067 280.446 527.855C257.781 527.332 235.894 522.443 214.745 514.269C198.49 507.986 183.141 499.938 168.747 490.146C151.537 478.438 136.645 464.174 122.949 448.523C109.542 433.202 98.7144 416.224 89.7136 398.097C78.5952 375.705 70.7539 352.067 66.2373 327.513C63.8822 314.71 63.2672 301.577 62.0947 288.572C61.4883 281.846 60.7492 275.034 61.179 268.333C62.0679 254.475 63.3865 240.626 65.0842 226.842C69.7555 188.917 83.5025 153.951 101.925 120.908C112.559 101.832 125.001 83.724 137.307 65.6417C141.499 59.4815 149.154 58.8545 156.13 60.19C162.829 61.4725 166.957 66.1162 169.081 72.6706C171.794 81.0442 167.915 87.4153 163.045 93.4453C148.808 111.077 136.165 129.776 125.109 149.55C114.585 168.373 105.595 187.929 99.9254 208.738C96.1634 222.546 92.8666 236.659 91.3256 250.849C89.4757 267.883 88.381 285.225 89.4237 302.283C90.4555 319.164 93.2128 336.226 97.6856 352.531C102.235 369.113 108.959 385.263 116.284 400.873C123.483 416.214 132.947 430.424 144.541 443.016C144.844 443.345 144.904 443.899 145.277 444.647Z" fill="#ffffff"></path>
			<path d="M570.322 578.28C562.363 588.591 554.74 598.692 546.871 608.598C543.599 612.716 539.857 616.469 536.232 620.297C515.672 642.004 492.201 660.134 466.929 675.938C455.902 682.834 444.732 689.668 433.015 695.245C422.923 700.05 413.315 697.225 408.304 687.597C403.407 678.186 406.963 666.87 416.406 662.289C436.565 652.51 456.378 642.107 474.577 628.98C485.234 621.293 495.805 613.375 505.625 604.67C515.736 595.709 525.655 586.303 534.252 575.926C543.698 564.526 552.093 552.143 559.948 539.564C571.649 520.828 580.369 500.576 586.209 479.267C589.482 467.325 592.013 455.115 593.892 442.874C595.628 431.57 597.07 420.044 596.848 408.65C596.268 378.807 591.013 349.8 578.812 322.256C569.976 302.306 558.506 284.169 544.282 267.607C528.455 249.179 510.055 234.187 488.167 223.642C474.055 216.843 459.302 211.897 443.657 210.007C434.917 208.951 426.141 207.008 417.422 207.209C399.906 207.614 382.25 208.921 366.287 217.118C357.333 221.716 348.096 226.602 340.75 233.294C329.407 243.627 320.752 256.441 319.2 272.356C318.332 281.253 319.044 290.304 318.208 299.489C317.491 296.804 316.258 294.142 316.142 291.432C315.519 276.851 315.468 262.335 323.025 249.03C331.206 234.629 341.79 222.822 356.576 214.711C372.127 206.181 388.62 201.724 406.15 199.926C443.875 196.057 479.203 203.515 512.082 222.096C530.164 232.315 545.824 245.847 559.668 261.256C575.525 278.904 588.42 298.624 598.064 320.364C606.177 338.651 611.912 357.614 615.174 377.422C617.853 393.69 619.494 409.997 618.959 426.426C618.185 450.2 615.359 473.822 607.869 496.458C602.093 513.911 595.302 531.094 587.833 547.895C583.159 558.409 576.389 567.991 570.322 578.28Z" fill="#ffffff"></path>
			<path d="M368.523 289.065C368.853 289.801 368.853 290.777 368.853 291.753C368.247 291.683 367.641 291.613 367.035 291.543C367.422 290.797 367.807 290.05 368.523 289.065Z" fill="#ffffff"></path>
			<path d="M321.171 393.101C322.299 392.16 323.625 391.401 325.371 390.648C325.903 390.794 326.016 390.933 326.129 391.072C324.854 391.779 323.579 392.485 322.049 393.403C321.653 393.504 321.512 393.393 321.171 393.101Z" fill="#ffffff"></path>
			<path d="M325.641 390.43C325.932 389.89 326.372 389.575 326.812 389.26C326.771 389.8 326.73 390.34 326.41 390.976C326.016 390.933 325.903 390.794 325.641 390.43Z" fill="#ffffff"></path>
		</svg>