<svg width="100" height="50" viewBox="0 0 2449 1077" fill="none" xmlns="http://www.w3.org/2000/svg"><path d="M2211.53 0C2212.74 0.896936 2213.3 2.10199 2214.24 2.6424C2222.34 7.29212 2224.95 14.7592 2222.82 24.1864C2221.02 32.1129 2213.53 37.2926 2205.71 37.1396C2194.64 36.9228 2183.51 37.1795 2172.48 38.0939C2141.62 40.6504 2111.21 45.5144 2081.85 55.9326C2055.55 65.2655 2031.05 77.9831 2009.35 95.4404C1996.28 105.956 1983.9 117.494 1972.24 129.573C1959.98 142.284 1949.92 156.862 1941.2 172.316C1932.17 188.317 1924.53 204.924 1919.85 222.694C1916.99 233.585 1914.66 244.694 1913.17 255.849C1911.73 266.577 1910.87 277.512 1911.16 288.318C1911.8 312.253 1916.59 335.471 1925.35 357.845C1931.2 372.791 1938.93 386.58 1948.69 399.35C1961.06 415.542 1976.19 428.475 1993.46 439.077C2007.94 447.965 2023.29 454.772 2039.92 458.457C2065.99 464.233 2090.03 460.446 2111.73 443.922C2122.97 435.367 2129.21 423.835 2133.97 411.103C2134.45 409.826 2134.91 408.541 2135.79 407.407C2134.98 415.666 2132.21 423.33 2128.03 430.376C2115.79 451.014 2096.58 461.671 2073.79 465.802C2053.33 469.513 2033.16 465.982 2013.83 458.864C1994.52 451.751 1976.81 441.629 1960.86 428.437C1942.48 413.24 1928 394.956 1917.06 373.902C1908.75 357.899 1902.55 340.959 1899.17 323.261C1896.64 310.03 1895.18 296.541 1894.16 283.096C1893.37 272.654 1893 261.986 1894.24 251.632C1895.95 237.396 1898.78 223.228 1902.15 209.277C1906.31 192.077 1913.23 175.776 1921.48 160.144C1929.86 144.282 1939.33 129.06 1951.1 115.434C1959.05 106.239 1966.71 96.709 1975.44 88.2934C1992.77 71.5659 2011.91 57.1206 2032.79 44.9139C2052.73 33.2587 2073.74 24.111 2095.83 17.8464C2112.99 12.9813 2130.57 9.41363 2148.12 6.16163C2159.95 3.96948 2172.08 3.35082 2184.06 1.95684C2184.95 1.85425 2185.76 1.17201 2186.3 0.379623C2194.35 1.40071e-05 2202.71 1.4e-05 2211.53 0Z" fill="#fb1949"></path><path d="M2450 211.546C2449.34 212.311 2448.21 212.506 2448.1 212.949C2444.69 227.139 2424.96 229.899 2414.87 217.625C2403.4 203.665 2391.15 190.302 2378.62 177.267C2355.11 152.801 2327.94 133.153 2297.19 118.755C2276.2 108.923 2254.39 101.217 2231.28 98.0342C2219.5 96.4126 2207.67 94.842 2195.82 94.1409C2184.69 93.4829 2173.36 92.8877 2162.36 94.2687C2146.88 96.2145 2131.42 99.2359 2116.31 103.191C2093.49 109.169 2072.39 119.383 2053.07 133.021C2038.7 143.169 2025.75 154.844 2014.12 168.166C2001.24 182.928 1990.65 199.019 1982.68 216.836C1976.14 231.445 1971.18 246.598 1970.08 262.672C1969.32 273.72 1968.41 284.889 1969.22 295.882C1970.46 312.786 1974.24 329.283 1980.95 345.03C1986.69 358.489 1994.3 370.693 2005.13 380.491C2020.48 394.383 2038.52 402.664 2059.53 400.695C2068.57 399.847 2077.3 395.667 2086.75 393.141C2087.46 393.393 2087.61 393.504 2087.75 393.614C2080.23 398.916 2071.56 401.376 2062.72 402.926C2039.56 406.987 2019.46 399.26 2001.8 385.049C1988.39 374.265 1979.03 360.002 1972.13 344.305C1966.03 330.405 1962.31 315.708 1960.15 300.735C1958.76 291.006 1957.8 281.056 1958.17 271.262C1959.07 247.506 1963.91 224.538 1973.97 202.77C1982.77 183.707 1994.19 166.463 2007.85 150.549C2026.79 128.493 2049.12 110.919 2074.9 97.5068C2097.89 85.5442 2122.12 77.6863 2147.56 72.8478C2170.47 68.4923 2193.56 68.0235 2216.55 69.2807C2241.58 70.6494 2266.15 75.8405 2290.01 83.9435C2321.83 94.746 2350.7 110.804 2377.6 130.892C2398.61 146.587 2416.89 165.116 2435.06 183.788C2440.51 189.389 2444.64 196.284 2449.68 202.293C2450 205.031 2450 208.061 2450 211.546Z" fill="#fb1949"></path><path d="M2450 462.531C2449.33 463.654 2448.18 464.238 2448.07 464.972C2446.31 477.36 2444.76 489.781 2442.97 502.167C2441.04 515.565 2429.91 522.644 2417.4 517.877C2407.93 514.267 2404.54 506.331 2406.27 496.438C2408.74 482.274 2411.89 468.21 2413.86 453.98C2415.56 441.659 2416.35 429.181 2416.9 416.744C2417.39 405.428 2417.8 394.003 2416.82 382.75C2415.25 364.71 2412.2 346.87 2407.1 329.369C2401.37 309.66 2393.6 290.786 2383.33 273.175C2375.3 259.416 2365.66 246.54 2356.06 233.782C2350.24 226.054 2343.59 218.814 2336.52 212.196C2313.4 190.549 2287.39 173.433 2257.25 162.931C2241.8 157.548 2226.15 153.306 2209.79 152C2201.29 151.321 2192.77 149.937 2184.29 150.127C2148.12 150.937 2114.26 159.773 2084.5 181.198C2062.04 197.369 2044.11 217.659 2032.17 242.717C2025.32 257.082 2021.35 272.558 2023.16 288.552C2026 313.668 2037.27 333.743 2060.84 345.378C2064.42 347.146 2068 348.911 2071.27 351.584C2066.32 349.654 2061.07 348.273 2056.49 345.688C2044.85 339.116 2034.26 330.96 2028.38 318.621C2024.42 310.318 2020.95 301.466 2019.22 292.483C2015.07 270.785 2020.11 250.197 2029.83 230.752C2036.35 217.686 2044.81 205.889 2054.48 194.843C2066.65 180.95 2080.62 169.399 2096.46 160.107C2112.64 150.622 2129.89 143.967 2148.28 139.857C2167.22 135.626 2186.28 134.523 2205.52 135.045C2222.8 135.514 2239.73 138.434 2256.42 142.962C2273.71 147.655 2290.09 154.51 2305.86 162.968C2321.3 171.254 2335.91 180.765 2348.94 192.525C2356.8 199.628 2364.48 206.969 2371.93 214.505C2386.06 228.787 2397.65 245.027 2408.03 262.178C2421.08 283.722 2431.46 306.481 2438.16 330.74C2441.8 343.915 2444.1 357.461 2447 370.843C2447.77 374.425 2448.51 378.017 2449.63 381.302C2450 408.021 2450 435.042 2450 462.531Z" fill="#fb1949"></path><path d="M189 739C157.517 739 126.533 739 95.5171 739C86.6491 767.112 77.8661 795.06 69.0054 822.983C66.2121 831.786 61.6647 834.999 52.5297 835C38.1988 835.001 23.868 835.009 9.53711 834.997C0.86695 834.989 -1.37436 832.38 1.05113 823.936C4.45812 812.075 8.29147 800.333 12.0934 788.59C20.437 762.818 28.8956 737.083 37.2693 711.32C45.5942 685.708 53.8726 660.08 62.1714 634.459C70.4702 608.837 78.7485 583.21 87.0734 557.597C95.4469 531.835 103.863 506.086 112.269 480.334C114.504 473.487 116.738 466.638 119.028 459.809C121.538 452.325 127.309 449.981 134.596 449.992C151.093 450.017 167.595 449.77 184.086 450.079C195.439 450.292 197.751 452.098 201.43 462.965C208.32 483.313 214.885 503.771 221.622 524.171C236.904 570.444 252.244 616.699 267.492 662.983C278.73 697.093 289.862 731.237 301.04 765.367C307.377 784.716 313.639 804.089 320.081 823.403C322.691 831.228 320.228 835.268 311.609 835.09C296.118 834.771 280.614 834.834 265.12 835.056C253.954 835.215 250.832 831.161 247.948 821.161C243.861 806.985 239.477 792.895 235.346 778.731C231.798 766.565 228.416 754.35 224.99 742.149C224.335 739.817 223.097 738.885 220.49 738.929C210.163 739.102 199.831 739 189 739ZM135.966 602.256C135.652 602.829 135.219 603.368 135.043 603.981C130.298 620.478 125.613 636.992 120.843 653.482C117.931 663.548 114.893 673.578 111.861 683.792C144.256 683.792 176.024 683.792 207.651 683.792C191.807 629.144 176.008 574.649 160.209 520.154C150.966 546.804 143.655 574.163 135.966 602.256Z" fill="#fb1949"></path><path d="M1613.18 553.019C1624.67 551.334 1635.74 549.715 1646.79 547.989C1670.76 544.243 1694.95 544.196 1719.02 545.243C1741.9 546.238 1764.32 550.715 1783.22 565.095C1793.32 572.771 1800.55 583.096 1803.74 595.25C1806.57 605.994 1808.58 617.259 1808.78 628.334C1809.63 674.395 1809.64 720.471 1810.04 766.541C1810.07 770.111 1810.26 773.807 1811.2 777.213C1812.56 782.11 1814.62 786.673 1820.98 787.097C1825.15 787.374 1829.26 788.553 1833.43 788.95C1839.37 789.514 1841.97 792.019 1841.99 797.896C1842.02 804.894 1841.74 811.904 1842.06 818.887C1842.61 831.094 1837.52 833.028 1829.03 834.694C1818.01 836.854 1806.59 837.887 1795.36 837.729C1785.66 837.592 1776.03 835.625 1767.24 830.184C1758.07 824.507 1754.52 815.631 1751.02 806.434C1750.51 805.093 1750.22 803.667 1749.78 802.132C1728.52 818.191 1704.98 829.454 1679.26 835.723C1670.31 837.905 1660.86 838.547 1651.6 838.846C1641.21 839.182 1630.58 839.516 1620.41 837.771C1593.37 833.127 1574.37 819.872 1567.05 790.954C1563.58 777.226 1562.36 763.129 1563.1 749.03C1564.15 729.159 1567.57 709.857 1579.95 693.294C1589.04 681.135 1601.32 673.52 1615.25 668.409C1626.66 664.221 1638.44 661.204 1650.7 661.03C1680.44 660.605 1710.18 660.332 1739.92 660.003C1741.74 659.982 1743.56 660 1745.89 660C1746.03 646.943 1747.36 633.865 1742.67 621.515C1737.98 609.161 1727.67 602.643 1715.15 601.234C1700.44 599.577 1685.54 599.232 1670.71 599.144C1659.72 599.079 1648.69 600.093 1637.71 601.066C1626.02 602.102 1614.36 603.524 1602.72 605.03C1595.79 605.927 1592.58 603.856 1590.99 596.744C1589.35 589.364 1587.49 582.025 1586.04 574.607C1584.54 566.89 1586.01 563.514 1593.4 560.086C1599.61 557.208 1606.28 555.347 1613.18 553.019ZM1729.6 768.038C1733.64 766.033 1737.62 763.906 1741.73 762.062C1744.86 760.658 1746.29 758.789 1746.1 755.081C1745.75 747.933 1746 740.754 1746 733.588C1746 724.482 1746 715.375 1746 707.001C1717.44 707.001 1689.35 706.144 1661.36 707.398C1649.17 707.944 1638.11 714.486 1633.09 726.999C1627.45 741.049 1627.51 755.69 1630.84 770.258C1632.45 777.3 1637.04 781.692 1644.21 784.184C1655.98 788.274 1667.82 787.679 1679.56 785.61C1696.87 782.558 1713.12 775.986 1729.6 768.038Z" fill="#fb1949"></path><path d="M1063 737.072C1062.33 729.28 1061.66 721.947 1061 714.612C1060.65 710.695 1059.85 706.746 1060.08 702.862C1061.23 684.019 1062.54 665.183 1064.04 646.363C1065.22 631.413 1070.16 617.538 1076.42 603.984C1084.84 585.743 1098.16 571.935 1114.67 561.135C1128.51 552.082 1144 547.086 1160.51 546.097C1174.06 545.285 1187.72 544.427 1201.24 545.183C1232.13 546.912 1259.7 557.121 1280.47 581.142C1291.67 594.1 1298.64 609.359 1302.12 626.34C1305.88 644.681 1308.51 663.091 1307.88 681.804C1307.62 689.717 1306.01 697.487 1299.98 703.609C1295.56 708.084 1290.22 709.95 1284.24 709.959C1233.74 710.031 1183.25 710 1132.76 710C1130.97 710 1129.18 710 1127.05 710C1126.57 728.344 1128.95 745.786 1138.28 761.378C1144.81 772.28 1155.5 777.979 1167.76 781.061C1181.36 784.482 1195.21 784.631 1208.97 783.824C1224.1 782.937 1239.14 780.627 1254.23 779.044C1261.89 778.241 1269.55 777.544 1277.23 777.049C1281.83 776.752 1285.37 778.032 1286.21 783.578C1287.56 792.509 1289.86 801.315 1290.88 810.274C1292.11 821.111 1289.16 822.658 1280.25 825.634C1267.8 829.786 1254.8 832.549 1241.85 834.834C1229.83 836.955 1217.58 837.977 1205.39 838.906C1195.01 839.697 1184.53 840.316 1174.15 839.858C1155.33 839.03 1136.7 836.091 1119.62 827.749C1094.12 815.3 1077.29 794.954 1069.17 767.847C1066.22 758.009 1065.01 747.652 1063 737.072ZM1131 637.643C1129.55 646.983 1128.1 656.324 1126.64 665.721C1164.99 665.721 1202.38 665.721 1239.81 665.721C1240.81 652.924 1239.2 640.623 1234.83 628.979C1229.95 615.94 1221.19 606.193 1207.63 601.167C1196.14 596.911 1184.24 597.377 1172.56 598.262C1161.67 599.087 1151.58 603.365 1143.82 611.699C1137.17 618.834 1133.63 627.576 1131 637.643Z" fill="#fb1949"></path><path d="M746.973 545C767.025 545.1 785.781 548.865 803.286 557.77C824.142 568.379 839.367 584.28 848.589 605.996C853.69 618.007 856.711 630.438 857.95 643.317C859.19 656.211 860.601 669.137 860.776 682.065C860.883 689.904 858.803 697.707 852.784 703.79C848.492 708.129 843.263 709.942 837.47 709.951C786.472 710.035 735.473 710 684.475 710C682.688 710 680.901 710 679.27 710C679.874 716.799 680.332 723.143 681.022 729.462C682.497 742.98 686.226 755.842 695.092 766.374C702.759 775.482 713.255 780.56 724.976 781.847C737.229 783.193 749.635 784.104 761.936 783.781C773.967 783.465 785.943 781.287 797.956 780.051C808.696 778.946 819.447 777.934 830.206 777.034C835.169 776.619 838.66 778.595 839.465 783.934C840.987 794.034 842.601 804.123 843.946 814.247C844.508 818.473 842.149 821.193 838.461 823.149C827.059 829.192 814.604 831.722 802.116 833.916C790.442 835.967 778.689 838.119 766.89 838.773C751.766 839.612 736.541 839.464 721.398 838.834C712.213 838.451 702.928 837.061 693.982 834.901C657.534 826.102 633.087 803.734 622.266 767.808C618.379 754.904 616.635 741.218 615.193 727.751C613.667 713.507 612.575 699.047 613.249 684.774C614.334 661.782 615.521 638.616 624.003 616.724C629.282 603.1 635.755 590.275 645.926 579.38C657.516 566.965 670.872 557.296 686.856 551.844C695.327 548.955 704.339 547.124 713.25 546.195C724.248 545.047 735.395 545.333 746.973 545ZM738.5 666C756.582 666 774.665 666 792.904 666C793.466 652.013 792.031 638.821 786.677 626.386C781.336 613.984 772.467 605.352 759.29 600.825C749.296 597.392 739.213 597.705 729.134 598.13C713.681 598.782 700.824 604.664 691.88 618.168C685.884 627.221 684.005 637.4 682.076 647.626C680.951 653.59 680.586 659.697 679.848 666C699.577 666 718.538 666 738.5 666Z" fill="#fb1949"></path><path d="M384.738 808.24C371.206 792.871 362.806 775.439 358.939 755.671C355.722 739.23 354.046 722.693 353.951 705.951C353.911 698.866 352.67 691.74 353.122 684.707C354.612 661.524 355.419 638.199 362.986 615.872C368.467 599.697 376.523 584.981 389.231 573.405C403.682 560.24 420.745 552.04 439.95 547.909C460.919 543.397 482.136 544.477 503.164 545.332C522.816 546.13 542.464 549.216 561.178 556.045C566.856 558.118 573.698 559.663 575.013 566.772C575.932 571.736 575.399 577.071 574.868 582.172C574.318 587.451 572.896 592.634 572.024 597.887C571.089 603.516 567.887 607.183 562.479 606.889C551.041 606.268 539.636 605.041 528.219 604.044C524.634 603.731 521.06 603.145 517.471 603.048C501.892 602.627 486.131 600.7 470.769 602.374C444.996 605.181 430.716 617.578 425.142 644.364C422.93 654.994 422.176 665.944 421.059 676.779C420.401 683.163 419.703 689.649 420.121 696.017C421.268 713.527 421.327 731.2 426.952 748.163C432.255 764.151 441.575 776.072 458.684 780.171C464.171 781.486 469.825 782.805 475.414 782.855C488.659 782.973 501.947 782.829 515.15 781.869C530.272 780.77 545.334 778.786 560.396 776.965C567.789 776.071 571.805 779.931 573.059 789.094C574.044 796.294 575.439 803.447 576.889 810.572C578.093 816.487 575.228 822.737 568.249 825.065C556.717 828.912 545.019 832.852 533.074 834.726C517.423 837.181 501.47 837.764 485.634 838.977C463.513 840.672 441.866 838.291 420.827 831.02C409.712 827.178 399.902 821.139 391.014 813.513C389.032 811.812 387.004 810.166 384.738 808.24Z" fill="#fb1949"></path><path d="M920 756C920 649.509 920 543.517 920 437.526C920 429.129 923.102 426.012 931.519 426.003C944.518 425.99 957.528 426.332 970.512 425.891C980.223 425.561 984.099 430.008 984.058 439.77C983.91 475.1 984 510.43 984 545.761C984 618.755 983.969 691.749 984.032 764.743C984.042 776.39 987.57 779.832 999.77 780.982C1004.51 781.428 1009.27 781.59 1014.01 782.021C1019.8 782.547 1022.53 785.901 1023.02 792.572C1023.62 800.743 1024.29 808.91 1025.01 817.072C1025.59 823.635 1023.27 828.019 1017.3 830.941C1009.2 834.907 1000.5 836.451 991.579 836.997C985.829 837.348 979.973 838.507 974.349 837.812C964.783 836.63 954.979 835.352 945.968 832.158C931.74 827.115 925.336 814.942 922.004 800.956C918.505 786.268 920.532 771.325 920 756Z" fill="#fb1949"></path><path d="M1435 692C1435 735.647 1435 778.794 1435 821.941C1435 831.641 1431.6 834.997 1421.8 834.999C1408.64 835.002 1395.48 835.014 1382.32 834.995C1374.29 834.984 1370.01 830.717 1370.01 822.698C1370 736.237 1370 649.777 1370.01 563.316C1370.01 554.46 1374.08 550.156 1383.03 550.042C1396.02 549.877 1409.02 549.871 1422.01 550.045C1430.93 550.163 1434.97 554.495 1435 563.352C1435.02 571.348 1435 579.344 1435 587.707C1440.97 583.669 1446.64 579.586 1452.55 575.887C1474.09 562.402 1497.19 552.545 1522.05 547.106C1530.04 545.357 1534.65 550.388 1535.11 556.55C1536.07 569.4 1537.67 582.202 1539 595.024C1539.03 595.355 1538.97 595.7 1539.04 596.022C1541.03 606.017 1539.34 609.279 1530.03 610.911C1500.67 616.058 1472.12 624.194 1444.01 633.982C1442.2 634.614 1440.46 635.579 1438.6 635.935C1435.6 636.509 1434.9 638.095 1434.93 641.023C1435.08 657.848 1435 674.674 1435 692Z" fill="#fb1949"></path><path d="M2179.21 553.289C2168.17 559.636 2157.65 566.266 2146.53 571.666C2129.44 579.969 2111.38 585.513 2092.64 589.109C2073.26 592.829 2053.7 594.036 2034.17 592.753C2019.99 591.822 2005.87 589.078 1991.9 586.311C1967.94 581.57 1945.24 572.874 1924.12 560.801C1909.05 552.183 1894.52 542.391 1880.71 531.854C1868.97 522.897 1858.07 512.657 1847.78 502.035C1832.17 485.915 1819.28 467.636 1807.94 448.206C1792.98 422.563 1781.59 395.408 1772.75 367.171C1769.83 357.853 1767.85 348.194 1766.11 338.569C1764.52 329.769 1775.41 319.797 1786.96 321.735C1797.03 323.423 1801.11 329.804 1802.87 338.223C1807.28 359.347 1813.68 379.844 1821.49 399.892C1830.15 422.124 1840.91 443.333 1855.03 462.651C1861.07 470.915 1867.46 478.978 1874.28 486.608C1880.95 494.077 1887.85 501.531 1895.59 507.828C1908.53 518.348 1921.72 528.708 1935.72 537.724C1952.32 548.418 1970.48 556.291 1989.44 562.101C2005.55 567.036 2021.77 571.372 2038.73 571.984C2050.48 572.407 2062.31 573.687 2073.96 572.785C2097.37 570.974 2120.01 565.536 2141.74 556.161C2156.92 549.613 2171.12 541.537 2184.35 531.823C2197.76 521.971 2209.31 510.052 2218.89 496.406C2231.58 478.341 2240.57 458.48 2245.44 436.975C2251.21 411.536 2251.9 386.163 2239.92 362.066C2229.8 341.691 2213.78 327.916 2191.18 323.25C2183.2 321.603 2174.79 322.044 2165.23 321.447C2189.79 318.041 2210.73 322.492 2228.4 338.883C2244.05 353.406 2252.36 371.519 2255.01 392.486C2257.59 412.887 2255.99 432.963 2250.65 452.796C2244.43 475.914 2234.17 497.172 2219.36 515.857C2208.56 529.494 2196.16 541.838 2181.28 551.312C2180.59 551.75 2180.07 552.446 2179.21 553.289Z" fill="#fb1949"></path><path d="M2303.29 436.339C2304.03 422.083 2305.91 408.079 2304.71 394.344C2302.07 364.043 2290.86 336.741 2272.78 312.102C2260.3 295.101 2245.53 280.944 2226.72 271.407C2212.96 264.426 2198.06 261.403 2182.69 263.135C2166.97 264.907 2153.17 271.36 2142.32 283.247C2140.55 285.183 2139.24 287.539 2137.72 289.701C2136.98 289.023 2136.23 288.345 2135.48 287.667C2138.3 284.295 2140.78 280.549 2144 277.616C2156.73 266.024 2171.53 259.81 2189.04 258.815C2214.57 257.365 2235.96 266.429 2255.39 281.867C2275.86 298.129 2291.03 318.57 2302.37 341.916C2309.93 357.485 2315.33 373.854 2316.9 391.168C2318.08 404.121 2319.42 417.216 2318.74 430.144C2317.77 448.385 2314.16 466.336 2308.66 483.883C2302.17 504.572 2292.96 523.911 2280.97 541.902C2270.38 557.77 2258.24 572.411 2244.15 585.285C2222.37 605.171 2197.99 621.212 2171.12 633.385C2148.93 643.44 2125.68 650.258 2101.82 654.915C2077.89 659.589 2053.56 660.165 2029.36 658.78C2001.36 657.178 1973.92 651.419 1947.28 642.568C1930.72 637.068 1914.3 631.056 1898.15 624.441C1889.08 620.723 1884.23 610.124 1888.71 599.816C1893.01 589.894 1904.55 585.911 1914.95 591.027C1935.44 601.106 1956.41 610.006 1978.46 615.954C1993.21 619.932 2008.25 622.848 2023.22 625.963C2040.79 629.619 2058.69 629.804 2076.44 628.762C2090.33 627.948 2104.19 625.487 2117.89 622.89C2139.92 618.715 2160.87 610.994 2180.83 600.912C2197.13 592.682 2212.29 582.617 2226.61 571.129C2243.92 557.238 2258.41 540.843 2270.56 522.58C2286.55 498.549 2297.44 472.175 2302.01 443.45C2302.36 441.207 2302.7 438.96 2303.29 436.339Z" fill="#fb1949"></path><path d="M1911.23 444.647C1924.51 458.399 1937.76 471.682 1953.56 482.021C1971.4 493.687 1990.32 503.068 2010.87 509.008C2027.41 513.789 2044.24 516.492 2061.48 515.974C2080.75 515.395 2099.28 511.161 2117.24 504.313C2132.39 498.541 2146.56 490.85 2158.9 480.413C2175.71 466.187 2187.56 448.625 2190.98 426.302C2193.77 408.082 2188.82 391.779 2178.4 376.891C2177.62 375.77 2176.9 374.604 2176.97 372.639C2178.26 373.922 2179.74 375.066 2180.82 376.508C2192.13 391.604 2196.93 408.652 2194.92 427.337C2193.04 444.734 2186.14 460.065 2174.95 473.676C2161.1 490.529 2143.7 502.406 2124.13 511.329C2108.13 518.627 2091.53 524.248 2073.89 525.963C2064.74 526.852 2055.54 528.067 2046.4 527.856C2023.73 527.332 2001.85 522.443 1980.7 514.269C1964.44 507.986 1949.09 499.938 1934.7 490.146C1917.49 478.438 1902.6 464.174 1888.9 448.523C1875.49 433.202 1864.67 416.224 1855.67 398.097C1844.55 375.705 1836.71 352.067 1832.19 327.513C1829.84 314.71 1829.22 301.577 1828.05 288.572C1827.44 281.846 1826.7 275.034 1827.13 268.333C1828.02 254.475 1829.34 240.626 1831.04 226.842C1835.71 188.917 1849.46 153.951 1867.88 120.908C1878.51 101.832 1890.95 83.724 1903.26 65.6417C1907.45 59.4816 1915.11 58.8545 1922.08 60.19C1928.78 61.4725 1932.91 66.1163 1935.03 72.6706C1937.75 81.0443 1933.87 87.4153 1929 93.4453C1914.76 111.077 1902.12 129.776 1891.06 149.55C1880.54 168.373 1871.55 187.93 1865.88 208.738C1862.12 222.546 1858.82 236.659 1857.28 250.849C1855.43 267.883 1854.33 285.225 1855.38 302.283C1856.41 319.164 1859.17 336.226 1863.64 352.531C1868.19 369.113 1874.91 385.263 1882.24 400.873C1889.44 416.214 1898.9 430.424 1910.49 443.016C1910.8 443.345 1910.86 443.899 1911.23 444.647Z" fill="#fb1949"></path><path d="M2336.27 578.28C2328.32 588.591 2320.69 598.692 2312.82 608.598C2309.55 612.716 2305.81 616.469 2302.19 620.297C2281.62 642.003 2258.15 660.134 2232.88 675.938C2221.85 682.834 2210.68 689.668 2198.97 695.245C2188.88 700.05 2179.27 697.225 2174.26 687.597C2169.36 678.186 2172.92 666.87 2182.36 662.289C2202.52 652.51 2222.33 642.107 2240.53 628.98C2251.19 621.293 2261.76 613.375 2271.58 604.67C2281.69 595.709 2291.61 586.303 2300.21 575.926C2309.65 564.526 2318.05 552.143 2325.9 539.564C2337.6 520.828 2346.32 500.576 2352.16 479.267C2355.43 467.325 2357.97 455.115 2359.84 442.874C2361.58 431.57 2363.02 420.044 2362.8 408.65C2362.22 378.807 2356.97 349.8 2344.77 322.256C2335.93 302.306 2324.46 284.169 2310.24 267.607C2294.41 249.179 2276.01 234.187 2254.12 223.642C2240.01 216.843 2225.25 211.897 2209.61 210.007C2200.87 208.951 2192.09 207.008 2183.37 207.209C2165.86 207.614 2148.2 208.921 2132.24 217.118C2123.29 221.716 2114.05 226.602 2106.7 233.294C2095.36 243.627 2086.7 256.441 2085.15 272.356C2084.28 281.253 2085 290.304 2084.16 299.489C2083.44 296.804 2082.21 294.142 2082.1 291.432C2081.47 276.851 2081.42 262.335 2088.98 249.03C2097.16 234.629 2107.74 222.822 2122.53 214.711C2138.08 206.181 2154.57 201.724 2172.1 199.926C2209.83 196.057 2245.16 203.515 2278.03 222.096C2296.12 232.315 2311.78 245.847 2325.62 261.256C2341.48 278.904 2354.37 298.624 2364.02 320.364C2372.13 338.651 2377.86 357.614 2381.13 377.422C2383.81 393.69 2385.45 409.997 2384.91 426.426C2384.14 450.2 2381.31 473.822 2373.82 496.458C2368.05 513.911 2361.26 531.094 2353.79 547.895C2349.11 558.409 2342.34 567.991 2336.27 578.28Z" fill="#fb1949"></path><path d="M1100.38 900.409C1112 899.844 1112 899.844 1112 911.251C1112 922.738 1112 934.224 1112 946.259C1123.03 941.984 1133.97 939.231 1145.52 939.995C1164.41 941.244 1174.22 949.599 1177.81 968.659C1179.59 978.107 1180.15 987.968 1179.79 997.587C1179.37 1008.64 1178.32 1019.8 1171.95 1029.67C1167.02 1037.29 1159.63 1040.97 1151.41 1041.78C1135.83 1043.32 1120.26 1042.65 1105.01 1038.14C1101.06 1036.97 1099.96 1034.92 1099.97 1031.23C1100.04 987.739 1100.04 944.248 1100.38 900.409ZM1167 993.481C1166.33 985.339 1165.83 977.179 1164.96 969.059C1163.82 958.39 1156.39 950.49 1144.17 951.165C1133.44 951.759 1122.78 953.772 1112.36 955.122C1112.36 980.597 1112.36 1004.77 1112.36 1029.01C1117.63 1029.35 1122.54 1029.67 1127.45 1030C1132.36 1030.33 1137.27 1030.94 1142.17 1030.95C1154.39 1030.96 1160.51 1027.38 1164.1 1016.11C1166.28 1009.28 1166.11 1001.71 1167 993.481Z" fill="#fb1949"></path><path d="M1687.84 986.666C1694.41 983.03 1701.15 981.863 1708.27 981.959C1719.72 982.113 1731.17 982 1743.34 982C1742.81 975.865 1742.76 970.108 1741.71 964.541C1740.32 957.177 1734.76 952.682 1727.9 952.275C1717.04 951.631 1706.09 952.669 1695.17 952.95C1692.02 953.032 1688.86 952.963 1685.75 952.963C1681.55 944.637 1684.98 943.793 1693.52 942.289C1703.98 940.449 1714.8 940.076 1725.45 940.2C1733.12 940.289 1741.45 941.308 1746.79 947.631C1750.15 951.616 1752.69 956.954 1753.74 962.068C1755.12 968.766 1754.87 975.839 1754.96 982.754C1755.11 995.916 1755 1009.08 1755 1022.24C1755 1030.57 1756.08 1031.69 1764.76 1032.12C1764.76 1034.87 1764.76 1037.65 1764.76 1040.43C1749.47 1043.28 1743.95 1040.72 1742.69 1030.77C1734.67 1033.89 1726.62 1037.41 1718.32 1040.13C1708.95 1043.21 1699.1 1043.22 1689.73 1040.68C1681.67 1038.49 1676.75 1031.8 1676.24 1023.67C1675.63 1014.02 1674.11 1003.82 1680.08 995C1682.11 991.999 1685.05 989.614 1687.84 986.666ZM1699.17 1030.7C1715.42 1032.83 1728.91 1024.99 1742.78 1018.79C1742.78 1009.86 1742.78 1001.11 1742.78 992.001C1731.12 992.001 1719.66 991.567 1708.26 992.215C1703.71 992.473 1698.93 994.494 1694.9 996.815C1687.68 1000.96 1686.58 1017.13 1690.19 1024.58C1691.92 1028.15 1694.46 1030.23 1699.17 1030.7Z" fill="#fb1949"></path><path d="M1518.36 1040.99C1503.57 1035.96 1495.56 1025.91 1495.09 1010.67C1494.66 996.697 1493.49 982.487 1495.42 968.771C1497.43 954.517 1505.23 943.756 1523.28 940.905C1533.16 939.344 1542.7 939.677 1552.14 942.976C1564.64 947.338 1570.61 956.981 1572.89 969.231C1573.87 974.521 1573.83 980.03 1573.96 985.446C1574.11 992.301 1571.35 994.992 1564.6 994.996C1546.78 995.007 1528.95 995 1511.13 995C1509.49 995 1507.85 995 1505.98 995C1507.02 1002.27 1507.91 1009.15 1509.03 1015.99C1510.03 1022.05 1517.34 1029.03 1525.1 1030.2C1537.39 1032.05 1549.13 1029.21 1561.11 1028.15C1563.49 1027.94 1567.14 1026.06 1568.12 1031.08C1568.92 1035.15 1568.16 1037.02 1563.92 1038.12C1549.03 1041.99 1534.04 1043.29 1518.36 1040.99ZM1544.8 952.269C1540.08 951.846 1535.34 950.902 1530.65 951.1C1518.07 951.632 1509.86 957.083 1508.01 970.359C1507.35 975.116 1506.83 979.894 1506.24 984.663C1524.52 984.663 1542.71 984.663 1561.13 984.663C1560.73 971.367 1560.07 958.648 1544.8 952.269Z" fill="#fb1949"></path><path d="M1461.72 907.1C1465.3 907.013 1468.45 907.013 1472.36 907.013C1471.51 909.476 1470.79 911.498 1470.13 913.536C1458.95 947.637 1447.77 981.737 1436.61 1015.84C1434.36 1022.7 1432.06 1029.53 1430.06 1036.46C1429.1 1039.79 1427.56 1041.19 1423.88 1041.1C1414.98 1040.86 1414.99 1041.06 1411.97 1031.92C1401.21 999.372 1390.43 966.828 1379.7 934.268C1377.29 926.966 1375.02 919.619 1372.75 912.275C1372.28 910.75 1372.06 909.145 1371.72 907.526C1372.53 907.288 1372.99 907.044 1373.45 907.031C1383.34 906.756 1383.44 906.73 1386.59 916.162C1395.58 943.056 1404.54 969.961 1413.41 996.897C1416.25 1005.54 1418.76 1014.3 1422.43 1023.21C1423.63 1019.4 1424.81 1015.57 1426.04 1011.77C1433.09 989.971 1440.12 968.169 1447.24 946.394C1451.07 934.67 1455.02 922.984 1459 911.31C1459.5 909.845 1460.52 908.557 1461.72 907.1Z" fill="#fb1949"></path><path d="M1259.02 1015.09C1252.66 1033.99 1246.21 1052.44 1240.07 1071C1238.77 1074.91 1236.98 1076.73 1232.81 1076.05C1231.05 1075.76 1229.2 1076 1226.02 1076C1228.15 1069.66 1230.04 1063.99 1231.97 1058.33C1233.59 1053.63 1235.96 1049.06 1236.67 1044.24C1237.18 1040.8 1235.94 1036.88 1234.71 1033.45C1225.91 1009.05 1216.93 984.709 1207.99 960.354C1206.28 955.694 1204.71 950.968 1202.73 946.425C1201.15 942.8 1202.75 942.445 1205.85 941.893C1211.74 940.84 1214.25 943.68 1216.02 948.74C1224.59 973.225 1233.33 997.649 1242.05 1022.08C1242.44 1023.18 1243.25 1024.13 1244.05 1025.48C1252.96 998.658 1261.77 972.425 1270.31 946.104C1271.4 942.741 1272.83 941.522 1276.2 941.95C1278.31 942.217 1280.48 942 1284.2 942C1275.64 966.73 1267.34 990.702 1259.02 1015.09Z" fill="#fb1949"></path><path d="M1634.16 946.014C1637.8 944.653 1641.14 943.472 1644.29 941.92C1648.38 939.902 1650.25 940.908 1650.01 945.531C1649.96 946.362 1649.73 947.34 1650.07 948.006C1651.89 951.622 1649.62 952.653 1646.84 953.647C1638.55 956.613 1630.28 959.676 1622 962.704C1622 987.441 1622.04 1011.59 1621.92 1035.74C1621.91 1037.48 1621 1040.57 1620.16 1040.69C1617.15 1041.12 1613.96 1040.72 1610.91 1040.22C1610.42 1040.14 1610.04 1037.9 1610.04 1036.66C1609.99 1006.5 1610.08 976.344 1609.93 946.187C1609.91 940.239 1613.98 942.375 1616.86 942.016C1620.11 941.611 1622.55 942.204 1622.04 946.41C1621.82 948.188 1622 950.015 1622 952.97C1626.42 950.363 1630.1 948.195 1634.16 946.014Z" fill="#fb1949"></path><path d="M2134.48 289.065C2134.81 289.801 2134.81 290.777 2134.81 291.753C2134.2 291.683 2133.59 291.613 2132.99 291.543C2133.37 290.797 2133.76 290.05 2134.48 289.065Z" fill="#fb1949"></path><path d="M2087.12 393.101C2088.25 392.16 2089.58 391.401 2091.32 390.648C2091.86 390.794 2091.97 390.933 2092.08 391.072C2090.81 391.779 2089.53 392.485 2088 393.403C2087.61 393.504 2087.46 393.393 2087.12 393.101Z" fill="#fb1949"></path><path d="M2091.59 390.43C2091.89 389.89 2092.32 389.575 2092.76 389.26C2092.72 389.8 2092.68 390.34 2092.36 390.976C2091.97 390.933 2091.86 390.794 2091.59 390.43Z" fill="#fb1949"></path></svg>